<?xml version="1.0" encoding="iso-8859-1"?>
<!-- Generator: Adobe Illustrator 16.0.0, SVG Export Plug-In . SVG Version: 6.00 Build 0)  -->
<!DOCTYPE svg PUBLIC "-//W3C//DTD SVG 1.1//EN" "http://www.w3.org/Graphics/SVG/1.1/DTD/svg11.dtd">
<svg version="1.1" id="Capa_1" xmlns="http://www.w3.org/2000/svg" xmlns:xlink="http://www.w3.org/1999/xlink" x="0px" y="0px"
	 width="589.728px" height="589.728px" viewBox="0 0 589.728 589.728" style="enable-background:new 0 0 589.728 589.728;"
	 xml:space="preserve">
<g>
	<g>
		<path d="M589.225,306.016l-0.305-23.612c-0.147-15.568-6.311-30.176-17.363-41.149c-11.086-11.006-25.793-17.068-41.414-17.068
			l-64.755,0.011l45.99-46.006c11.158-11.167,17.266-26.001,17.206-41.777c-0.059-15.775-6.279-30.563-17.514-41.638l-0.088-0.086
			l-0.088-0.085l-16.918-16.487c-11.056-10.844-25.666-16.814-41.156-16.814c-15.709,0-30.477,6.12-41.581,17.232l-45.765,45.781
			l-0.012-65.052C365.45,26.86,339.084,0.502,306.689,0.5h-0.001h-0.002c-0.164,0-0.321,0-0.485,0.002l-0.092,0l-0.092,0.001
			l-23.613,0.305c-15.572,0.148-30.183,6.314-41.156,17.371c-11.008,11.09-17.066,25.804-17.06,41.429l0.011,64.732l-45.964-45.949
			c-11.106-11.097-25.861-17.206-41.553-17.207c-15.669-0.001-30.41,6.093-41.506,17.157L78.397,95.038l-0.017,0.017l-0.017,0.017
			c-11.131,11.101-17.266,25.871-17.273,41.592c-0.008,15.72,6.112,30.498,17.232,41.609l45.997,45.982l-64.992,0.011
			c-15.69,0.006-30.436,6.113-41.53,17.196C6.703,252.544,0.582,267.284,0.559,282.964L0.5,306.632v0.023v0.024
			c-0.022,15.716,6.082,30.495,17.188,41.615c11.105,11.121,25.876,17.246,41.593,17.246l65.061-0.011l-45.949,45.963
			c-11.09,11.101-17.199,25.845-17.207,41.525c-0.007,15.679,6.083,30.427,17.153,41.529l16.699,16.783l0.016,0.017l0.017,0.017
			c11.108,11.14,25.89,17.274,41.622,17.274c15.709,0,30.477-6.12,41.581-17.232l45.981-45.997l0.011,64.993
			c0.006,15.69,6.113,30.435,17.195,41.528s25.821,17.216,41.501,17.237l23.67,0.06h0.053h0.054
			c15.726,0,30.489-6.116,41.591-17.223c11.104-11.106,17.217-25.874,17.21-41.58l-0.011-65.039l46.006,45.991
			c11.106,11.098,25.862,17.206,41.554,17.206c7.685,0,15.182-1.475,22.284-4.383c7.378-3.021,13.965-7.439,19.575-13.13l0.088-0.09
			l0.087-0.089l16.488-16.92c10.9-11.115,16.87-25.803,16.812-41.376c-0.06-15.626-6.179-30.314-17.233-41.359l-45.779-45.765
			l65.052-0.011c15.786-0.007,30.594-6.177,41.708-17.375c11.112-11.197,17.171-26.052,17.057-41.827l-0.001-0.123V306.016z
			 M530.456,322.623l-168.478,0.028l118.933,118.892c6.197,6.193,6.235,16.227,0.084,22.466l-16.553,16.986
			c-3.12,3.165-7.235,4.75-11.352,4.75c-4.076,0-8.153-1.554-11.267-4.664l-119.15-119.112l0.028,168.474
			c0.004,8.808-7.136,15.946-15.94,15.946c-0.007,0-0.015,0-0.021,0l-23.715-0.06c-8.792-0.013-15.915-7.142-15.918-15.934
			l-0.028-168.417L147.97,481.127c-3.113,3.116-7.194,4.674-11.275,4.674c-4.086,0-8.173-1.562-11.287-4.685l-16.727-16.811
			c-6.209-6.226-6.203-16.303,0.012-22.522l119.069-119.11l-168.473,0.028c-0.002,0-0.004,0-0.006,0
			c-8.812,0-15.952-7.149-15.94-15.962l0.059-23.715c0.012-8.792,7.142-15.915,15.934-15.917l168.417-0.028L108.603,147.97
			c-6.235-6.23-6.23-16.338,0.011-22.562l16.812-16.728c3.111-3.103,7.183-4.653,11.255-4.653c4.078,0,8.155,1.555,11.267,4.665
			l119.109,119.069l-0.028-168.167c-0.003-8.762,7.065-15.884,15.826-15.946l23.715-0.306c0.04,0,0.077,0,0.117,0
			c8.791,0,15.934,7.127,15.938,15.934l0.028,168.477L441.544,108.82c3.112-3.114,7.193-4.673,11.276-4.673
			c4.042,0,8.085,1.528,11.189,4.589l16.986,16.553c6.299,6.209,6.337,16.361,0.085,22.618L361.97,267.056l168.167-0.028
			c0.002,0,0.004,0,0.007,0c8.758,0,15.877,7.067,15.939,15.826l0.306,23.716C546.452,315.414,539.301,322.619,530.456,322.623z"/>
		<path d="M306.738,589.728h-0.054l-23.724-0.06c-15.813-0.021-30.677-6.195-41.854-17.384
			c-11.177-11.188-17.336-26.062-17.342-41.882l-0.011-63.786l-45.128,45.144c-11.198,11.207-26.091,17.379-41.934,17.379
			c-15.866,0-30.773-6.187-41.976-17.421L77.984,494.9c-11.163-11.195-17.306-26.069-17.299-41.882
			c0.008-15.813,6.171-30.687,17.354-41.879l45.096-45.109l-63.854,0.011c-15.85,0-30.747-6.177-41.947-17.393
			C6.134,337.434-0.022,322.528,0,306.679l0.059-23.716c0.022-15.813,6.196-30.678,17.384-41.854
			c11.188-11.177,26.062-17.336,41.883-17.342l63.785-0.011l-45.144-45.128c-11.215-11.206-17.387-26.109-17.378-41.962
			c0.008-15.854,6.195-30.75,17.42-41.946l16.814-16.73c11.189-11.158,26.055-17.303,41.855-17.303
			c15.829,0,30.711,6.163,41.91,17.353l45.11,45.096l-0.011-63.525c-0.006-15.759,6.104-30.597,17.205-41.781
			c11.064-11.148,25.805-17.37,41.506-17.519L306.687,0c32.674,0.002,59.264,26.589,59.276,59.266l0.012,63.845l44.911-44.927
			c11.198-11.207,26.091-17.378,41.933-17.378c0.001,0,0.001,0,0.002,0c15.617,0,30.357,6.022,41.507,16.957l17.094,16.659
			c11.331,11.17,17.604,26.083,17.663,41.993c0.061,15.911-6.103,30.874-17.353,42.132l-45.137,45.152l63.548-0.011
			c15.753,0,30.586,6.113,41.767,17.213c11.144,11.063,17.362,25.801,17.511,41.499l0.306,23.856
			c0.115,15.909-5.994,30.89-17.202,42.184c-11.208,11.293-26.146,17.516-42.062,17.522l-63.845,0.011l44.926,44.911
			c11.147,11.138,17.319,25.951,17.38,41.711c0.059,15.699-5.962,30.519-16.954,41.728l-16.663,17.099
			c-5.659,5.74-12.302,10.195-19.743,13.243c-7.163,2.933-14.724,4.42-22.474,4.42c-15.825,0-30.708-6.162-41.907-17.353
			l-45.152-45.138l0.011,63.832c0.007,15.84-6.157,30.732-17.356,41.934C337.487,583.559,322.591,589.728,306.738,589.728z
			 M224.754,464.202l0.011,66.2c0.006,15.552,6.061,30.175,17.049,41.175c10.988,11,25.601,17.069,41.147,17.091l23.67,0.06
			l0.105,0.5v-0.5c15.585,0,30.23-6.064,41.237-17.076c11.011-11.013,17.07-25.653,17.063-41.227l-0.011-66.246l46.859,46.845
			c11.01,11.001,25.642,17.06,41.2,17.06c7.619,0,15.053-1.462,22.095-4.346c7.315-2.996,13.846-7.376,19.408-13.018l16.661-17.097
			c10.809-11.021,16.728-25.591,16.67-41.025c-0.059-15.494-6.127-30.058-17.087-41.008l-46.633-46.618l66.259-0.011
			c15.647-0.007,30.334-6.125,41.354-17.228c11.019-11.103,17.024-25.831,16.911-41.471l-0.001-0.247l-0.305-23.605
			c-0.146-15.435-6.26-29.924-17.216-40.8c-10.991-10.913-25.574-16.923-41.062-16.923l-65.962,0.011l46.844-46.859
			c11.061-11.069,17.118-25.779,17.06-41.421c-0.058-15.641-6.225-30.302-17.364-41.284l-17.092-16.657
			c-10.962-10.751-25.454-16.672-40.808-16.672c-15.575,0-30.217,6.067-41.228,17.085l-46.618,46.634l-0.012-66.259
			C364.95,27.141,338.809,1.002,306.689,1l-0.483,0.002l-0.188-0.498l0.007,0.5l-23.614,0.305
			c-15.438,0.146-29.93,6.263-40.808,17.223c-10.914,10.996-16.921,25.584-16.915,41.077l0.011,65.939l-46.818-46.803
			c-11.009-11.001-25.641-17.06-41.199-17.06c-15.538,0-30.152,6.042-41.153,17.011L78.75,95.393
			c-11.07,11.04-17.152,25.686-17.16,41.271c-0.008,15.587,6.06,30.238,17.085,41.255l46.851,46.835l-66.199,0.011
			c-15.554,0.006-30.178,6.061-41.176,17.049C7.151,252.804,1.082,267.417,1.059,282.965L1,306.633
			c-0.022,15.63,6.03,30.283,17.041,41.309c11.011,11.027,25.657,17.1,41.239,17.1l66.268-0.011l-46.803,46.816
			c-10.993,11.004-17.052,25.626-17.061,41.172c-0.007,15.546,6.033,30.169,17.007,41.176l16.7,16.784
			c11.046,11.077,25.702,17.16,41.3,17.16c15.576,0,30.217-6.067,41.227-17.086L224.754,464.202z M306.762,546.889l-23.738-0.06
			c-9.048-0.013-16.413-7.385-16.417-16.434l-0.028-167.21L148.323,481.48c-3.105,3.108-7.235,4.82-11.629,4.82
			c-4.4,0-8.535-1.716-11.641-4.832l-16.728-16.811c-6.39-6.406-6.384-16.827,0.013-23.229l118.215-118.257l-167.266,0.028
			c-4.402,0-8.533-1.713-11.639-4.823s-4.813-7.244-4.807-11.64l0.059-23.715c0.013-9.049,7.384-16.414,16.434-16.417l167.21-0.028
			L108.25,148.323c-3.11-3.107-4.822-7.24-4.819-11.637c0.002-4.397,1.718-8.528,4.831-11.633l16.812-16.728
			c3.103-3.094,7.225-4.799,11.608-4.799c4.389,0,8.516,1.709,11.62,4.812l118.255,118.216l-0.028-166.96
			c-0.003-9.004,7.318-16.382,16.322-16.446l23.836-0.306c9.06,0,16.434,7.373,16.438,16.433l0.028,167.27L441.19,108.467
			c3.106-3.108,7.237-4.82,11.63-4.82c4.346,0,8.444,1.681,11.54,4.733l16.984,16.551c3.145,3.099,4.884,7.234,4.9,11.646
			c0.017,4.413-1.691,8.562-4.811,11.683L363.177,266.556l166.96-0.028c9.007,0,16.382,7.322,16.446,16.322l0.306,23.712
			c0.031,4.415-1.662,8.569-4.771,11.701s-7.25,4.857-11.662,4.859l-167.271,0.028l118.079,118.038
			c6.369,6.364,6.407,16.759,0.087,23.17l-16.551,16.984c-3.116,3.161-7.274,4.901-11.71,4.901c-4.389,0-8.515-1.708-11.62-4.811
			L323.174,363.176l0.028,167.267c0.002,4.393-1.707,8.522-4.813,11.63C315.283,545.178,311.154,546.889,306.762,546.889z
			 M267.579,360.771l0.028,169.624c0.003,8.498,6.92,15.422,15.418,15.434l23.716,0.06c4.146,0,8.023-1.606,10.94-4.523
			c2.917-2.918,4.522-6.797,4.521-10.923l-0.028-169.681l120.004,119.966c2.916,2.913,6.792,4.518,10.913,4.518
			c4.166,0,8.07-1.634,10.995-4.601l16.551-16.984c5.938-6.023,5.902-15.786-0.079-21.764L360.771,322.151l169.685-0.028
			c4.144-0.002,8.033-1.623,10.952-4.564s4.51-6.843,4.48-10.985l-0.306-23.713c-0.061-8.456-6.986-15.332-15.439-15.332
			l-169.381,0.028l119.965-120.003c2.929-2.932,4.533-6.828,4.518-10.972c-0.016-4.144-1.649-8.027-4.6-10.937l-16.984-16.551
			c-2.91-2.868-6.759-4.447-10.841-4.447c-4.126,0-8.005,1.607-10.923,4.527L322.152,228.959l-0.028-169.684
			c-0.004-8.51-6.929-15.433-15.438-15.434h-0.117l-23.709,0.306c-8.458,0.06-15.335,6.989-15.332,15.446l0.028,169.374
			L147.594,109.045c-2.915-2.914-6.791-4.519-10.913-4.519c-4.116,0-7.988,1.601-10.902,4.507l-16.812,16.728
			c-2.923,2.916-4.535,6.795-4.537,10.925s1.605,8.011,4.526,10.93l120.002,119.962l-169.625,0.029
			c-8.498,0.003-15.422,6.919-15.434,15.418l-0.059,23.715c-0.006,4.128,1.598,8.01,4.515,10.931
			c2.917,2.922,6.797,4.53,10.925,4.53l169.687-0.028L109.045,442.137c-6.007,6.012-6.012,15.799-0.011,21.815l16.728,16.812
			c2.917,2.926,6.8,4.537,10.933,4.537c4.126,0,8.005-1.607,10.922-4.527L267.579,360.771z"/>
	</g>
</g>
<g>
</g>
<g>
</g>
<g>
</g>
<g>
</g>
<g>
</g>
<g>
</g>
<g>
</g>
<g>
</g>
<g>
</g>
<g>
</g>
<g>
</g>
<g>
</g>
<g>
</g>
<g>
</g>
<g>
</g>
</svg>
