<?xml version="1.0" encoding="iso-8859-1"?>
<!-- Generator: Adobe Illustrator 19.0.0, SVG Export Plug-In . SVG Version: 6.00 Build 0)  -->
<svg version="1.1" id="Layer_1" xmlns="http://www.w3.org/2000/svg" xmlns:xlink="http://www.w3.org/1999/xlink" x="0px" y="0px"
	 viewBox="0 0 512 512" style="enable-background:new 0 0 512 512;" xml:space="preserve">
<g>
	<g>
		<path d="M256,0C114.841,0,0,114.841,0,256s114.841,256,256,256s256-114.841,256-256S397.159,0,256,0z M401.711,268.561
			c0,6.938-5.624,12.561-12.561,12.561h-72.497l51.264,51.264c4.905,4.905,4.905,12.859,0,17.764l-17.765,17.764
			c-4.905,4.905-12.859,4.905-17.764,0l-51.264-51.264v72.499c0,6.938-5.624,12.561-12.561,12.561h-25.123
			c-6.938,0-12.561-5.624-12.561-12.561v-72.499l-51.264,51.264c-4.905,4.905-12.859,4.905-17.764,0l-17.764-17.764
			c-4.905-4.905-4.905-12.859,0-17.764l51.264-51.264h-72.499c-6.938,0-12.561-5.624-12.561-12.561v-25.123
			c0-6.938,5.624-12.561,12.561-12.561h72.499l-51.264-51.264c-4.905-4.905-4.905-12.859,0-17.764l17.764-17.764
			c4.905-4.905,12.859-4.905,17.764,0l51.264,51.264v-72.499c0-6.938,5.624-12.561,12.561-12.561h25.123
			c6.938,0,12.561,5.624,12.561,12.561v72.499l51.264-51.264c4.905-4.905,12.859-4.905,17.764,0l17.765,17.764
			c4.905,4.905,4.905,12.859,0,17.764l-51.264,51.264h72.497c6.938,0,12.561,5.624,12.561,12.561V268.561z"/>
	</g>
</g>
<g>
</g>
<g>
</g>
<g>
</g>
<g>
</g>
<g>
</g>
<g>
</g>
<g>
</g>
<g>
</g>
<g>
</g>
<g>
</g>
<g>
</g>
<g>
</g>
<g>
</g>
<g>
</g>
<g>
</g>
</svg>
